<?xml version="1.0" encoding="utf-8"?>
<!-- Generator: Adobe Illustrator 26.0.1, SVG Export Plug-In . SVG Version: 6.00 Build 0)  -->
<svg version="1.1"
     id="Layer_1"
     xmlns="http://www.w3.org/2000/svg"
     xmlns:xlink="http://www.w3.org/1999/xlink"
     x="0px"
     y="0px"
     viewBox="0 0 1125 1130.5"
     preserveAspectRatio="none"
     xml:space="preserve">
<style type="text/css">
<!--	.st0{fill:#1A1A1A; filter:url(#noiseFilter);}-->
	.st0{fill:#1A1A1A;}
	.st1{opacity:0.1;}
	.st2{opacity:0.15;}
	.st3{fill:#4D4D4D;}
</style>

	<filter id='noiseFilter'>
		<feTurbulence
			type="fractalNoise"
			baseFrequency='.5'
			numOctaves='3'
			stitchTiles='stitch'/>
	</filter>

	<path class="st0" d="M0,0v1130.5h1125V0H0z M130.3,131.2c-45.1-45.1,902.5-45.1,857.4,0c45.1-45.1,45.1,902.5,0,857.4
	c45.1,45.1-902.5,45.1-857.4,0C85.1,1033.7,85.1,86.1,130.3,131.2z"/>
	<g>
	<g>
		<path class="st1" d="M130.3,131.2c-15.4-15.4,84.3-25.5,220.6-30.4C205.3,98.3,92.1,93.1,84.1,85c8,8,13.3,121.2,15.8,266.8
			C104.8,215.5,114.9,115.8,130.3,131.2z"/>
		<g class="st2">
			<path class="st3" d="M90.9,91.8c9.8,2.2,30.3,4.7,74.8,7.2c22.1,1.2,48.7,2.3,78.9,3.3c-18.5,1.3-35,2.8-49.5,4.4
				c-57.6,6.4-67.6,13.1-69.9,18.8c-0.1,0.1-0.1,0.3-0.2,0.4c-4.6,1.4-8,7.4-11.1,19.5c-2.8,10.8-5.4,26.6-7.8,47.2
				c-1.7,15.1-3.3,32.9-4.8,53.1c-1-30.3-2.1-56.9-3.3-79.1C95.6,122.1,93,101.6,90.9,91.8 M84.1,85c8,8,13.3,121.2,15.8,266.8
				c4.6-127,13.7-222.2,27.3-222.2c1,0,2,0.5,3.1,1.6c-15.4-15.4,84.3-25.5,220.6-30.4C205.3,98.3,92.1,93.1,84.1,85L84.1,85z"/>
		</g>
	</g>
		<g>
		<path class="st1" d="M767,100.8c136.4,4.9,236,15,220.6,30.4c15.4-15.4,25.5,84.3,30.4,220.6c2.5-145.6,7.7-258.8,15.8-266.8
			C1025.8,93.1,912.6,98.3,767,100.8z"/>
			<g class="st2">
			<path class="st3" d="M1027,91.8c-2.2,9.8-4.7,30.3-7.2,74.8c-1.2,22.2-2.3,48.8-3.3,79.1c-1.5-20.2-3.1-38-4.8-53.1
				c-2.4-20.5-5-36.4-7.8-47.2c-3.2-12.1-6.6-18.2-11.1-19.5c0-0.1-0.1-0.3-0.2-0.4c-2.3-5.7-12.3-12.4-69.9-18.8
				c-14.5-1.6-31-3.1-49.5-4.4c30.2-1,56.8-2.1,78.9-3.3C996.8,96.5,1017.3,93.9,1027,91.8 M1033.8,85L1033.8,85L1033.8,85z
				 M1033.8,85c-8,8-121.2,13.3-266.8,15.8c136.4,4.9,236,15,220.6,30.4c1-1,2.1-1.6,3.1-1.6c13.6,0,22.7,95.2,27.3,222.2
				C1020.5,206.2,1025.8,93.1,1033.8,85L1033.8,85z"/>
		</g>
	</g>
		<g>
		<path class="st1" d="M130.3,988.6c-15.4,15.4-25.5-84.3-30.4-220.6c-2.5,145.6-7.7,258.8-15.8,266.8c8-8,121.2-13.3,266.8-15.8
			C214.5,1014,114.9,1003.9,130.3,988.6z"/>
			<g class="st2">
			<path class="st3" d="M101.4,874c1.5,20.2,3.1,38,4.8,53.1c2.4,20.5,5,36.4,7.8,47.2c3.2,12.1,6.6,18.2,11.1,19.5
				c0,0.1,0.1,0.3,0.2,0.4c2.3,5.7,12.3,12.4,69.9,18.8c14.5,1.6,31,3.1,49.5,4.4c-30.2,1-56.8,2.1-78.9,3.3
				c-44.5,2.5-65,5-74.8,7.2c2.2-9.8,4.7-30.3,7.2-74.8C99.3,931,100.4,904.3,101.4,874 M99.9,767.9
				c-2.5,145.6-7.7,258.8-15.8,266.8c8-8,121.2-13.3,266.8-15.8c-136.4-4.9-236-15-220.6-30.4c-1,1-2.1,1.6-3.1,1.6
				C113.5,990.1,104.4,895,99.9,767.9L99.9,767.9z M130.3,988.6L130.3,988.6L130.3,988.6z"/>
		</g>
	</g>
		<g>
		<path class="st1" d="M987.6,988.6c15.4,15.4-84.3,25.5-220.6,30.4c145.6,2.5,258.8,7.7,266.8,15.8c-8-8-13.3-121.2-15.8-266.8
			C1013.1,904.3,1003,1003.9,987.6,988.6z"/>
			<g class="st2">
			<path class="st3" d="M1016.5,874c1,30.3,2.1,56.9,3.3,79.1c2.5,44.5,5,65,7.2,74.8c-9.8-2.2-30.3-4.7-74.8-7.2
				c-22.1-1.2-48.7-2.3-78.9-3.3c18.5-1.3,35-2.8,49.5-4.4c57.6-6.4,67.6-13.1,69.9-18.8c0.1-0.1,0.1-0.3,0.2-0.4
				c4.6-1.4,8-7.4,11.1-19.5c2.8-10.8,5.4-26.6,7.8-47.2C1013.5,912,1015.1,894.2,1016.5,874 M1018,767.9
				c-4.6,127-13.7,222.2-27.3,222.2c-1,0-2-0.5-3.1-1.6c15.4,15.4-84.3,25.5-220.6,30.4c145.6,2.5,258.8,7.7,266.8,15.8
				C1025.8,1026.7,1020.5,913.5,1018,767.9L1018,767.9z"/>
		</g>
	</g>
</g>
</svg>
