<?xml version="1.0" encoding="utf-8"?>
<!-- Generator: Adobe Illustrator 26.0.1, SVG Export Plug-In . SVG Version: 6.00 Build 0)  -->
<svg version="1.1" xmlns="http://www.w3.org/2000/svg" xmlns:xlink="http://www.w3.org/1999/xlink" x="0px" y="0px"
	 viewBox="0 0 600 400" style="enable-background:new 0 0 600 400;" xml:space="preserve">
<style type="text/css">
	.st0{fill:#FFFFFF;}
</style>
<g id="bg">
	<rect y="-820" width="600" height="400"/>
	<rect x="920" y="-820" width="600" height="400"/>
	<rect width="600" height="400"/>
	<rect x="920" width="600" height="400"/>
</g>
<g id="basic_transport">
	<circle class="st0" cx="306.9" cy="200" r="166.1"/>
	<g>
		<polygon class="st0" points="284.2,-765.5 284.2,-474.5 431.2,-621.5 		"/>
		<rect x="221.2" y="-765.5" class="st0" width="31.5" height="291"/>
	</g>
	<path d="M403.7,131.5L274.4,260.7c-7.4,7.4-19.4,7.4-26.8,0l-51.2-51.2c-7.3-7.3-19.2-7.4-26.6-0.1l0,0c-7.5,7.4-7.6,19.5-0.1,26.9
		l78,78c7.4,7.4,19.4,7.4,26.8,0l156.1-156.1c7.4-7.4,7.4-19.5-0.1-26.9l0,0C423,124.1,411.1,124.1,403.7,131.5z"/>
	<g>
		<polygon class="st0" points="1057.3,-765.5 1057.3,-474.5 1204.2,-621.5 		"/>
		<polygon class="st0" points="1235.8,-765.5 1235.8,-474.5 1382.7,-621.5 		"/>
	</g>
</g>
</svg>
