<?xml version="1.0" encoding="utf-8"?>
<!-- Generator: Adobe Illustrator 26.0.1, SVG Export Plug-In . SVG Version: 6.00 Build 0)  -->
<svg version="1.1" id="Layer_1" xmlns="http://www.w3.org/2000/svg" xmlns:xlink="http://www.w3.org/1999/xlink" x="0px" y="0px"
	 viewBox="0 0 1125 2436" style="enable-background:new 0 0 1125 2436;" xml:space="preserve">
<style type="text/css">
	.st0{fill:#1A1A1A;}
	.st1{opacity:0.5;}
	.st2{fill:#4D4D4D;}
</style>
<path class="st0" d="M0,0v2436h1125V0H0z M130.3,218.7c-45.1-45.1,902.5-45.1,857.4,0c45.1-45.1,45.1,902.5,0,857.4
	c45.1,45.1-902.5,45.1-857.4,0C85.1,1121.2,85.1,173.5,130.3,218.7z M987.6,2217.3c45.1,45.1-902.5,45.1-857.4,0
	c-45.1,45.1-45.1-902.5,0-857.4c-45.1-45.1,902.5-45.1,857.4,0C1032.8,1314.8,1032.8,2262.5,987.6,2217.3z"/>
<g>
	<g>
		<path d="M130.3,218.7c-15.4-15.4,84.3-25.5,220.6-30.4c-145.6-2.5-258.8-7.7-266.8-15.8c8,8,13.3,121.2,15.8,266.8
			C104.8,302.9,114.9,203.3,130.3,218.7z"/>
		<g class="st1">
			<path class="st2" d="M90.9,179.3c9.8,2.2,30.3,4.7,74.8,7.2c22.1,1.2,48.7,2.3,78.9,3.3c-18.5,1.3-35,2.8-49.5,4.4
				c-57.6,6.4-67.6,13.1-69.9,18.8c-0.1,0.1-0.1,0.3-0.2,0.4c-4.6,1.4-8,7.4-11.1,19.5c-2.8,10.8-5.4,26.6-7.8,47.2
				c-1.7,15.1-3.3,32.9-4.8,53.1c-1-30.3-2.1-56.9-3.3-79.1C95.6,209.5,93,189.1,90.9,179.3 M84.1,172.5c8,8,13.3,121.2,15.8,266.8
				c4.6-127,13.7-222.2,27.3-222.2c1,0,2,0.5,3.1,1.6c-15.4-15.4,84.3-25.5,220.6-30.4C205.3,185.8,92.1,180.5,84.1,172.5
				L84.1,172.5z"/>
		</g>
	</g>
	<g>
		<path d="M767,188.3c136.4,4.9,236,15,220.6,30.4c15.4-15.4,25.5,84.3,30.4,220.6c2.5-145.6,7.7-258.8,15.8-266.8
			C1025.8,180.5,912.6,185.8,767,188.3z"/>
		<g class="st1">
			<path class="st2" d="M1027,179.3c-2.2,9.8-4.7,30.3-7.2,74.8c-1.2,22.2-2.3,48.8-3.3,79.1c-1.5-20.2-3.1-38-4.8-53.1
				c-2.4-20.5-5-36.4-7.8-47.2c-3.2-12.1-6.6-18.2-11.1-19.5c0-0.1-0.1-0.3-0.2-0.4c-2.3-5.7-12.3-12.4-69.9-18.8
				c-14.5-1.6-31-3.1-49.5-4.4c30.2-1,56.8-2.1,78.9-3.3C996.8,184,1017.3,181.4,1027,179.3 M1033.8,172.5L1033.8,172.5
				L1033.8,172.5z M1033.8,172.5c-8,8-121.2,13.3-266.8,15.8c136.4,4.9,236,15,220.6,30.4c1-1,2.1-1.6,3.1-1.6
				c13.6,0,22.7,95.2,27.3,222.2C1020.5,293.7,1025.8,180.5,1033.8,172.5L1033.8,172.5z"/>
		</g>
	</g>
	<g>
		<path d="M130.3,1076c-15.4,15.4-25.5-84.3-30.4-220.6c-2.5,145.6-7.7,258.8-15.8,266.8c8-8,121.2-13.3,266.8-15.8
			C214.5,1101.5,114.9,1091.4,130.3,1076z"/>
		<g class="st1">
			<path class="st2" d="M101.4,961.5c1.5,20.2,3.1,38,4.8,53.1c2.4,20.5,5,36.4,7.8,47.2c3.2,12.1,6.6,18.2,11.1,19.5
				c0,0.1,0.1,0.3,0.2,0.4c2.3,5.7,12.3,12.4,69.9,18.8c14.5,1.6,31,3.1,49.5,4.4c-30.2,1-56.8,2.1-78.9,3.3
				c-44.5,2.5-65,5-74.8,7.2c2.2-9.8,4.7-30.3,7.2-74.8C99.3,1018.5,100.4,991.8,101.4,961.5 M99.9,855.4
				c-2.5,145.6-7.7,258.8-15.8,266.8c8-8,121.2-13.3,266.8-15.8c-136.4-4.9-236-15-220.6-30.4c-1,1-2.1,1.6-3.1,1.6
				C113.5,1077.6,104.4,982.4,99.9,855.4L99.9,855.4z M130.3,1076L130.3,1076L130.3,1076z"/>
		</g>
	</g>
	<g>
		<path d="M987.6,1076c15.4,15.4-84.3,25.5-220.6,30.4c145.6,2.5,258.8,7.7,266.8,15.8c-8-8-13.3-121.2-15.8-266.8
			C1013.1,991.8,1003,1091.4,987.6,1076z"/>
		<g class="st1">
			<path class="st2" d="M1016.5,961.5c1,30.3,2.1,56.9,3.3,79.1c2.5,44.5,5,65,7.2,74.8c-9.8-2.2-30.3-4.7-74.8-7.2
				c-22.1-1.2-48.7-2.3-78.9-3.3c18.5-1.3,35-2.8,49.5-4.4c57.6-6.4,67.6-13.1,69.9-18.8c0.1-0.1,0.1-0.3,0.2-0.4
				c4.6-1.4,8-7.4,11.1-19.5c2.8-10.8,5.4-26.6,7.8-47.2C1013.5,999.5,1015.1,981.7,1016.5,961.5 M1018,855.4
				c-4.6,127-13.7,222.2-27.3,222.2c-1,0-2-0.5-3.1-1.6c15.4,15.4-84.3,25.5-220.6,30.4c145.6,2.5,258.8,7.7,266.8,15.8
				C1025.8,1114.2,1020.5,1001,1018,855.4L1018,855.4z"/>
		</g>
	</g>
</g>
<g>
	<g>
		<path d="M130.3,1360c-15.4-15.4,84.3-25.5,220.6-30.4c-145.6-2.5-258.8-7.7-266.8-15.8c8,8,13.3,121.2,15.8,266.8
			C104.8,1444.2,114.9,1344.6,130.3,1360z"/>
		<g class="st1">
			<path class="st2" d="M90.9,1320.5c9.8,2.2,30.3,4.7,74.8,7.2c22.1,1.2,48.7,2.3,78.9,3.3c-18.5,1.3-35,2.8-49.5,4.4
				c-57.6,6.4-67.6,13.1-69.9,18.8c-0.1,0.1-0.1,0.3-0.2,0.4c-4.6,1.4-8,7.4-11.1,19.5c-2.8,10.8-5.4,26.6-7.8,47.2
				c-1.7,15.1-3.3,32.9-4.8,53.1c-1-30.3-2.1-56.9-3.3-79.1C95.6,1350.8,93,1330.3,90.9,1320.5 M84.1,1313.8
				c8,8,13.3,121.2,15.8,266.8c4.6-127,13.7-222.2,27.3-222.2c1,0,2,0.5,3.1,1.6c-15.4-15.4,84.3-25.5,220.6-30.4
				C205.3,1327.1,92.1,1321.8,84.1,1313.8L84.1,1313.8z"/>
		</g>
	</g>
	<g>
		<path d="M767,1329.6c136.4,4.9,236,15,220.6,30.4c15.4-15.4,25.5,84.3,30.4,220.6c2.5-145.6,7.7-258.8,15.8-266.8
			C1025.8,1321.8,912.6,1327.1,767,1329.6z"/>
		<g class="st1">
			<path class="st2" d="M1027,1320.5c-2.2,9.8-4.7,30.3-7.2,74.8c-1.2,22.2-2.3,48.8-3.3,79.1c-1.5-20.2-3.1-38-4.8-53.1
				c-2.4-20.5-5-36.4-7.8-47.2c-3.2-12.1-6.6-18.2-11.1-19.5c0-0.1-0.1-0.3-0.2-0.4c-2.3-5.7-12.3-12.4-69.9-18.8
				c-14.5-1.6-31-3.1-49.5-4.4c30.2-1,56.8-2.1,78.9-3.3C996.8,1325.3,1017.3,1322.7,1027,1320.5 M1033.8,1313.8L1033.8,1313.8
				L1033.8,1313.8z M1033.8,1313.8c-8,8-121.2,13.3-266.8,15.8c136.4,4.9,236,15,220.6,30.4c1-1,2.1-1.6,3.1-1.6
				c13.6,0,22.7,95.2,27.3,222.2C1020.5,1435,1025.8,1321.8,1033.8,1313.8L1033.8,1313.8z"/>
		</g>
	</g>
	<g>
		<path d="M130.3,2217.3c-15.4,15.4-25.5-84.3-30.4-220.6c-2.5,145.6-7.7,258.8-15.8,266.8c8-8,121.2-13.3,266.8-15.8
			C214.5,2242.8,114.9,2232.7,130.3,2217.3z"/>
		<g class="st1">
			<path class="st2" d="M101.4,2102.8c1.5,20.2,3.1,38,4.8,53.1c2.4,20.5,5,36.4,7.8,47.2c3.2,12.1,6.6,18.2,11.1,19.5
				c0,0.1,0.1,0.3,0.2,0.4c2.3,5.7,12.3,12.4,69.9,18.8c14.5,1.6,31,3.1,49.5,4.4c-30.2,1-56.8,2.1-78.9,3.3
				c-44.5,2.5-65,5-74.8,7.2c2.2-9.8,4.7-30.3,7.2-74.8C99.3,2159.7,100.4,2133.1,101.4,2102.8 M99.9,1996.7
				c-2.5,145.6-7.7,258.8-15.8,266.8c8-8,121.2-13.3,266.8-15.8c-136.4-4.9-236-15-220.6-30.4c-1,1-2.1,1.6-3.1,1.6
				C113.5,2218.9,104.4,2123.7,99.9,1996.7L99.9,1996.7z M130.3,2217.3L130.3,2217.3L130.3,2217.3z"/>
		</g>
	</g>
	<g>
		<path d="M987.6,2217.3c15.4,15.4-84.3,25.5-220.6,30.4c145.6,2.5,258.8,7.7,266.8,15.8c-8-8-13.3-121.2-15.8-266.8
			C1013.1,2133.1,1003,2232.7,987.6,2217.3z"/>
		<g class="st1">
			<path class="st2" d="M1016.5,2102.8c1,30.3,2.1,56.9,3.3,79.1c2.5,44.5,5,65,7.2,74.8c-9.8-2.2-30.3-4.7-74.8-7.2
				c-22.1-1.2-48.7-2.3-78.9-3.3c18.5-1.3,35-2.8,49.5-4.4c57.6-6.4,67.6-13.1,69.9-18.8c0.1-0.1,0.1-0.3,0.2-0.4
				c4.6-1.4,8-7.4,11.1-19.5c2.8-10.8,5.4-26.6,7.8-47.2C1013.5,2140.8,1015.1,2123,1016.5,2102.8 M1018,1996.7
				c-4.6,127-13.7,222.2-27.3,222.2c-1,0-2-0.5-3.1-1.6c15.4,15.4-84.3,25.5-220.6,30.4c145.6,2.5,258.8,7.7,266.8,15.8
				C1025.8,2255.5,1020.5,2142.3,1018,1996.7L1018,1996.7z"/>
		</g>
	</g>
</g>
</svg>
